<?xml version="1.0" encoding="utf-8"?>
<!-- Generator: Adobe Illustrator 23.0.2, SVG Export Plug-In . SVG Version: 6.00 Build 0)  -->
<svg version="1.1" id="Layer_1" xmlns="http://www.w3.org/2000/svg" xmlns:xlink="http://www.w3.org/1999/xlink" x="0px" y="0px"
	 viewBox="0 0 600 600" style="enable-background:new 0 0 600 600;" xml:space="preserve">
<g>
	<path d="M39.96,299.64c0-12.08,0.05-24.16-0.03-36.24c-0.02-3.34,1.57-4.77,4.68-4.76c6.83,0.02,13.66,0,20.48,0.22
		c5.44,0.18,14.43,8.85,14.32,14.26c-0.16,7.95,2.07,16.15-2.05,23.8c-0.44,0.82-0.35,2.24,0.05,3.13c4.18,9.22,2,18.84,1.64,28.28
		c-0.18,4.91-10.1,12.54-15.05,12.55c-6.33,0.02-12.67-0.06-19,0.05c-3.58,0.06-5.11-1.39-5.08-5.06
		C40.03,323.81,39.96,311.72,39.96,299.64z M52.53,316.66c0,1.83,0.03,3.67-0.01,5.5c-0.06,2.86,0.23,5.78,3.87,5.76
		c4.03-0.02,9.39,1.85,10.61-4.42c0.72-3.71,0.5-7.62,0.5-11.44c0-5.45-2.89-7.64-9.62-7.62c-5.3,0.01-5.29,3.76-5.34,7.48
		C52.52,313.5,52.54,315.08,52.53,316.66z M67.88,281.74c-0.41-2.36-0.39-4.9-1.33-7.03c-2.1-4.8-6.67-3.14-10.34-3.01
		c-1.23,0.04-3.32,2.13-3.4,3.38c-0.29,4.62-0.13,9.31,0.4,13.91c0.13,1.14,2.2,2.79,3.52,2.94
		C64.76,292.78,67.57,290.01,67.88,281.74z"/>
	<path d="M526.48,300.73c0-11.49,0.07-22.99-0.04-34.48c-0.05-4.78,1.41-7.34,6.82-6.82c4.54,0.43,9.23,0.63,13.72-0.02
		c9.49-1.37,20.46,9.82,19.73,19.61c-1.05,14.17-0.27,28.47-0.26,42.71c0.01,10.74-8.32,19.16-18.97,19.17
		c-5.16,0-10.33-0.13-15.49,0.05c-3.98,0.14-5.57-1.57-5.54-5.48C526.54,323.88,526.48,312.3,526.48,300.73z M538.9,299.75
		c0,7.83,0.05,15.66-0.02,23.5c-0.03,3.2,1.3,4.75,4.58,4.82c8.71,0.2,10.48-1.49,10.49-10.38c0.01-12,0.11-24-0.07-35.99
		c-0.04-2.49-0.37-6.17-1.94-7.17c-2.83-1.81-6.66-2.44-10.12-2.61c-0.88-0.04-2.7,3.43-2.78,5.35
		C538.7,284.74,538.9,292.25,538.9,299.75z"/>
	<path d="M430.5,340.88c-3.91,0.41-6.58-1.45-7.02-6.46c-0.46-5.24-3.74-7.5-8.86-7.37c-2.08,0.05-4.16,0.07-6.24,0
		c-5.34-0.2-8.39,2.2-9.37,7.55c-1.05,5.67-5.77,8.17-11.02,5.67c-1.09-0.52-2-3.15-1.7-4.53c1.75-8.03,3.93-15.97,5.89-23.96
		c2.2-8.94,4.31-17.9,6.47-26.84c1.79-7.43,3.18-15,5.69-22.18c0.7-1.99,4.8-3.85,7.31-3.82c2.38,0.03,6.19,2.17,6.82,4.18
		c2.55,8.14,4.01,16.61,6.07,24.92c2.09,8.46,4.41,16.86,6.62,25.29c1.85,7.06,3.74,14.11,5.47,21.2
		C437.78,339.34,436.3,341.01,430.5,340.88z M413.45,314.61c0.51-0.42,3.78-1.95,3.69-3.24c-0.35-4.75-1.66-9.46-2.94-14.09
		c-0.3-1.09-2.02-2.63-2.86-2.51c-1.1,0.17-2.49,1.64-2.85,2.82c-0.97,3.25-1.24,6.71-2.19,9.98
		C404.6,313.36,405.43,314.63,413.45,314.61z"/>
	<path d="M194.52,340.9c-5.32,0.15-7.62-2.7-8.14-6.78c-0.75-5.82-3.81-7.93-9.37-7.06c-0.49,0.08-1,0-1.5,0.01
		c-11.11,0.16-10.31-1.68-13.46,9.32c-1.23,4.3-7.65,6.28-11.11,3.45c-0.89-0.73-1.45-2.72-1.17-3.9
		c4.29-18.03,8.72-36.03,13.16-54.03c1.61-6.53,3.41-13.02,4.95-19.56c0.99-4.23,4.27-3.5,7.16-3.6c2.86-0.1,5.46,0.23,6.33,3.8
		c4.38,18,8.81,35.99,13.31,53.96c1.64,6.53,3.74,12.95,5.23,19.51C201.06,341.12,196.68,340.25,194.52,340.9z M174.38,314.61
		c3.4-0.02,7.61,0.67,6.3-4.97c-1.31-5.65-3.04-11.21-4.69-16.77c-0.22-0.75-1.05-1.32-1.59-1.98c-0.5,0.69-1.26,1.31-1.47,2.08
		c-1.38,4.86-2.59,9.77-3.94,14.64C167.32,313.64,168.04,314.61,174.38,314.61z"/>
	<path d="M359.82,341.77c-5.45-0.65-7.59-2.41-8.55-7.57c-3.19-17.32-7.23-34.48-10.8-51.73c-1.33-6.43-2.39-12.92-3.18-19.43
		c-0.12-0.96,2.03-3.18,2.95-3.09c2.81,0.28,5.81,0.95,8.19,2.38c1.27,0.77,1.68,3.36,2.04,5.21c1.94,10.2,3.71,20.43,5.63,30.63
		c0.29,1.52,1.06,2.95,1.61,4.42c0.86-1.34,2.16-2.58,2.5-4.05c2.58-11.17,5.04-22.36,7.38-33.58c0.97-4.66,3.66-5.98,8.13-5.43
		c3.51,0.43,4.88,1.91,4.14,5.42c-1.88,9.03-3.72,18.06-5.51,27.11c-2.06,10.41-3.99,20.86-6.1,31.26
		c-0.97,4.8-1.91,9.66-3.56,14.25C364.05,339.32,361.5,340.39,359.82,341.77z"/>
	<path d="M204.03,299.81c0-8.08-0.06-16.17,0.01-24.25c0.07-8.7,9.58-16.26,18.12-17.02c9.5-0.84,15.85,3.21,20.19,10.28
		c2.05,3.34,1.53,8.53,1.25,12.82c-0.07,1.02-3.77,2.12-5.93,2.62c-3.93,0.91-5.27-1.38-5.6-4.98c-0.6-6.61-2.38-8.1-8.88-7.81
		c-4.04,0.18-6.58,2.4-6.63,6.37c-0.17,14.58-0.15,29.16-0.03,43.74c0.03,4.06,2.57,6.26,6.56,6.4c4.28,0.15,8.19-0.24,8.9-5.94
		c0.84-6.75,2.18-7.84,7.91-6.43c1.62,0.4,3.65,2.29,4.07,3.87c2.65,9.89-6.61,20.71-16.77,21.62c-9.28,0.84-15.81-2.54-20.84-9.66
		c-1.34-1.9-2.15-4.56-2.23-6.9C203.87,316.31,204.03,308.06,204.03,299.81z"/>
	<path d="M84.56,299.74c0-11.75,0.11-23.5-0.07-35.24c-0.05-3.49,1.39-5.43,4.6-5.51c8.56-0.22,17.13-0.28,25.69-0.07
		c3.77,0.09,5.23,2.56,4.76,6.36c-0.44,3.59-1.82,6.09-5.79,6.18c-3.83,0.09-7.67,0.01-11.5,0.07c-3.56,0.06-5.76,1.51-5.35,5.49
		c0.07,0.66,0.02,1.33,0.03,2c0.04,7.77,2.02,9.54,9.81,8.78c5.72-0.56,8.72,2.52,6.84,7.89c-0.7,1.99-3.62,3.29-5.7,4.65
		c-0.61,0.4-1.78-0.07-2.69-0.13c-6.35-0.41-8.28,1.41-8.26,7.72c0.02,5,0.11,10-0.05,15c-0.11,3.47,1.63,4.92,4.77,5.01
		c3.91,0.11,7.83,0.03,11.75,0.09c5.06,0.08,6.03,3.44,6.17,7.62c0.13,4.18-2.64,5.13-5.84,5.19c-7.83,0.14-15.66,0.11-23.49,0.01
		c-3.87-0.05-5.9-1.86-5.74-6.11c0.22-5.82,0-11.66-0.02-17.49c-0.01-5.83,0-11.66,0-17.5C84.51,299.74,84.53,299.74,84.56,299.74z"
		/>
	<path d="M485.6,299.81c0-11.75,0.1-23.49-0.06-35.24c-0.05-3.57,1.41-5.56,4.78-5.63c8.48-0.17,16.96-0.19,25.44,0
		c3.44,0.08,5.22,2.11,4.77,5.83c-0.43,3.52-1.38,6.51-5.59,6.66c-4.08,0.15-8.16,0.02-12.24,0.14c-3.29,0.1-5.15,1.68-4.79,5.22
		c0.04,0.41,0.01,0.83,0.02,1.25c0.08,9.23,1.43,10.44,10.74,9.69c3.65-0.29,6.02,1.2,6.3,5.05c0.35,4.79-1.79,7.5-5.81,7.61
		c-11.22,0.31-11.22,0.31-11.22,11.46c0,3.58,0.14,7.17-0.06,10.74c-0.22,3.84,1.71,5.32,5.2,5.37c3.75,0.05,7.5,0.01,11.25,0.05
		c5.06,0.05,6.07,3.36,6.23,7.56c0.16,4.16-2.54,5.19-5.77,5.25c-7.83,0.14-15.66,0.11-23.49,0.02c-3.85-0.04-5.86-1.78-5.8-6.05
		c0.19-11.66,0.06-23.33,0.06-34.99C485.57,299.81,485.58,299.81,485.6,299.81z"/>
	<path d="M313.21,340.92c-4.25,0-8.56,0.41-12.71-0.2c-1.69-0.25-4.13-2.58-4.33-4.21c-0.4-3.21-1.03-7.62,3.9-8.36
		c7.74-1.16,7.6-0.96,7.57-8.64c-0.06-14.16,0.04-28.31,0.2-42.47c0.05-4.28-2.29-5.45-5.97-5.54c-5.1-0.13-6.26-1.92-5.85-8.71
		c0.27-4.37,3.33-4.19,6.49-4.16c7.16,0.08,14.32,0.2,21.47-0.02c7.84-0.23,8.72,3.22,6.82,9.8c-0.4,1.38-3.18,2.77-4.97,2.92
		c-4.12,0.34-5.94,1.86-5.89,6.19c0.16,14.82,0.16,29.65,0,44.48c-0.04,4.18,1.63,6.07,5.7,5.99c5.93-0.13,5.65,4.31,5.88,8.17
		c0.24,4.05-2.59,4.73-5.8,4.73C321.54,340.92,317.38,340.91,313.21,340.92z"/>
	<path d="M466.45,305.55c0,9.91-0.03,19.82,0.01,29.73c0.02,4.24-2.47,5.36-6.15,5.37c-3.62,0.02-5.89-1.07-5.88-5.25
		c0.07-19.24,0.02-38.47,0.03-57.71c0-6.66-1.46-8.05-7.93-7.38c-3.84,0.4-5.25-1.78-5.52-5.16c-0.27-3.37,0.03-6.28,4.56-6.27
		c9.83,0.03,19.65,0,29.48-0.06c4.77-0.03,4.78,3.14,4.52,6.51c-0.25,3.33-1.76,5.33-5.43,4.93c-6.24-0.67-7.69,0.62-7.69,6.8
		C466.45,286.56,466.45,296.05,466.45,305.55z"/>
	<path d="M265.02,305.6c0-9-0.02-18,0.01-26.99c0.02-7.11-0.58-7.41-7.6-8.69c-2.32-0.42-5.27-2.57-6.14-4.67
		c-1.63-3.95,1.12-6.53,6.35-6.58c5.58-0.05,11.16,0.16,16.74,0.21c3.66,0.03,7.4-0.5,10.94,0.14c1.87,0.34,5.02,3.27,4.76,3.97
		c-0.95,2.56-2.96,4.82-4.89,6.89c-0.61,0.65-2.23,0.45-3.39,0.47c-4.22,0.08-5.83,2.27-5.81,6.38c0.08,18.91,0.03,37.82,0.06,56.73
		c0.01,3.81-0.08,7.39-5.32,7.47c-5.24,0.08-5.77-3.25-5.73-7.35C265.08,324.26,265.02,314.93,265.02,305.6z"/>
</g>
</svg>
