<?xml version="1.0" encoding="utf-8"?>
<!-- Generator: Adobe Illustrator 23.0.2, SVG Export Plug-In . SVG Version: 6.00 Build 0)  -->
<svg version="1.1" id="Layer_1" xmlns="http://www.w3.org/2000/svg" xmlns:xlink="http://www.w3.org/1999/xlink" x="0px" y="0px"
	 viewBox="0 0 800 800" style="enable-background:new 0 0 800 800;" xml:space="preserve">
<g>
	<path d="M389.96,18.68c1.65,1.11,2.54,1.56,3.23,2.18c10.79,9.56,21.52,19.18,32.38,28.68c1.99,1.74,2.71,3.51,2.71,5.94
		c-0.05,44.7-0.02,89.4-0.01,134.1c0.01,96.6,0.11,193.2-0.13,289.8c-0.02,8.58-1.7,17.24-3.49,25.71c-2.1,9.95-4.5,19.93-8,29.55
		c-4.37,12.01-10.43,23.46-17.46,34.52c-13.73,21.6-31.64,40-52.94,55.88c-14.33,10.68-29.96,19.74-47.06,26.39
		c-12.51,4.86-25.7,8.36-38.64,12.33c-3.74,1.15-7.61,2.11-11.51,2.62c-2.14,0.28-5.23,0.13-6.6-1.04
		c-10.14-8.61-19.96-17.52-29.85-26.36c-0.63-0.56-1.05-1.3-2.11-2.63c4.56-0.3,8.34-0.42,12.1-0.82
		c5.97-0.63,11.98-1.17,17.87-2.24c6.8-1.23,13.69-2.48,20.17-4.61c9.69-3.18,19.27-6.78,28.54-10.84
		c21.42-9.4,39.5-22.77,55.18-38.63c14.54-14.71,25.95-31.22,33.48-49.7c2.57-6.31,5.42-12.61,7-19.13
		c2.06-8.53,3.73-17.24,4.23-25.93c0.85-14.77,0.86-29.6,0.86-44.4c0.05-133.67,0.03-267.34,0.03-401.01
		C389.96,32.61,389.96,26.2,389.96,18.68z"/>
	<path d="M259.57,680.26c1.55-0.55,2.58-0.97,3.65-1.28c10.85-3.13,21.91-5.8,32.53-9.45c19.71-6.79,37.77-16.33,54.53-27.76
		c17.35-11.84,32.67-25.53,46.05-40.9c12.8-14.69,23.09-30.73,30.93-47.9c4.24-9.28,7.39-18.98,10.62-28.6
		c6.33-18.88,7.56-38.29,7.55-57.87c-0.08-128.19-0.04-256.38-0.04-384.57c0-4.26,0-8.52,0-13.67c1.74,1.07,2.77,1.52,3.54,2.2
		c10.8,9.55,21.54,19.16,32.37,28.69c1.93,1.7,2.85,3.45,2.82,5.93c-0.13,11.28-0.04,22.56-0.04,33.85
		c0.01,112.29,0.09,224.57-0.13,336.86c-0.02,9.68-1.82,19.38-3.16,29.03c-1.04,7.42-2.34,14.85-4.12,22.15
		c-1.57,6.47-3.77,12.83-6.03,19.15c-6.94,19.39-16.47,37.75-28.47,55.08c-15.19,21.93-33.78,41.34-55.74,58.14
		c-19.61,15-41.15,27.46-64.66,37.11c-8.96,3.68-18.31,6.6-27.49,9.86c-2.95,1.05-5.32,0.72-7.75-1.53
		c-8.03-7.45-16.35-14.65-24.54-21.96C261.25,682.15,260.64,681.39,259.57,680.26z"/>
	<path d="M502.67,117.29c1.94,2.02,3.74,4.17,5.84,6.05c9.19,8.26,18.52,16.38,27.63,24.7c1.26,1.15,2.22,3.13,2.23,4.72
		c0.15,25.36,0.14,50.72,0.12,76.08c-0.02,30.09-0.11,60.18-0.12,90.27c-0.01,54.59,0.12,109.18-0.06,163.77
		c-0.03,9.52-0.7,19.1-2.17,28.53c-1.56,10.03-4.39,19.92-6.73,29.85c-3.49,14.81-9.03,29.07-15.57,42.98
		c-8.24,17.54-18.03,34.4-29.88,50.27c-15.52,20.78-33.54,39.71-54.29,56.46c-16.75,13.52-34.61,25.87-54.46,35.68
		c-12.74,6.3-25.88,11.97-38.85,17.91c-2.37,1.09-4.25,0.59-6.14-1.12c-7.7-6.99-15.55-13.85-23.3-20.79
		c-3.23-2.89-3.05-2.77,1.16-4.4c11.39-4.4,22.89-8.63,33.93-13.65c27.79-12.63,52.31-29.27,74.13-49.08
		c17.76-16.13,33.06-33.9,45.74-53.48c10.82-16.71,19.56-34.24,25.83-52.64c3.86-11.33,6.9-22.93,9.31-34.57
		c1.91-9.22,2.68-18.67,3.3-28.06c0.66-9.95,0.75-19.94,0.75-29.91c0.05-107.04,0.03-214.08,0.03-321.12c0-5.86,0-11.72,0-17.59
		C501.63,117.86,502.15,117.58,502.67,117.29z"/>
	<path d="M557.32,167.03c0.8,0.57,1.67,1.09,2.39,1.73c10.87,9.65,21.77,19.26,32.5,29.03c1.25,1.14,2.17,3.13,2.17,4.73
		c0.1,91.12,0.15,182.24-0.02,273.37c-0.02,11.45-1,22.92-2.06,34.34c-0.71,7.65-1.98,15.3-3.65,22.84
		c-1.92,8.66-4.26,17.27-6.96,25.76c-3.59,11.27-7.21,22.57-11.73,33.56c-6.62,16.09-14.71,31.66-24.15,46.63
		c-12.31,19.53-26.11,38.21-42.84,54.97c-11.86,11.87-24.18,23.45-37.16,34.34c-13.87,11.64-28.84,22.3-45.15,31.2
		c-14.28,7.79-28.97,15-43.4,22.57c-1.71,0.9-2.66,0.88-4.01-0.33c-7.31-6.57-14.67-13.11-22.09-19.59
		c-2.02-1.77-1.23-2.72,0.87-3.55c20.48-8.12,39.76-18.13,57.7-30.01c11.8-7.81,23.33-16.09,34.01-25.07
		c11.99-10.09,23.65-20.67,34.05-32.05c10.4-11.38,19.5-23.77,28.4-36.15c11.19-15.57,20.06-32.24,27.09-49.64
		c3.73-9.24,7.64-18.45,10.69-27.87c2.58-7.96,4.27-16.16,5.93-24.33c2.04-9.99,3.77-20.03,5.37-30.08
		c0.57-3.59,0.43-7.28,0.52-10.93c0.21-7.72,0.51-15.44,0.52-23.17c0.04-98.97,0.04-197.93,0.05-296.9c0-1.67,0-3.34,0-5.01
		C556.67,167.3,556.99,167.16,557.32,167.03z"/>
</g>
</svg>
