<?xml version="1.0" encoding="utf-8"?>
<!-- Generator: Adobe Illustrator 23.0.2, SVG Export Plug-In . SVG Version: 6.00 Build 0)  -->
<svg version="1.1" id="Layer_1" xmlns="http://www.w3.org/2000/svg" xmlns:xlink="http://www.w3.org/1999/xlink" x="0px" y="0px"
	 viewBox="0 0 100 100" style="enable-background:new 0 0 100 100;" xml:space="preserve">
<g>
	<path d="M23.2,49.5c0.5,0,1,0.4,1,1c0,0.5-0.4,1-1,1H7.5c-0.5,0-1-0.4-1-1c0-0.5,0.4-1,1-1H23.2z"/>
	<path d="M92.5,49.4c0.5,0,1,0.4,1,1c0,0.5-0.4,1-1,1H76.8c-0.5,0-1-0.4-1-1c0-0.5,0.4-1,1-1H92.5z"/>
	<path d="M63.7,72.8c0.8,0.2,0.6,0,1,0.5l7.9,13.6c0.3,0.5,0.1,1.1-0.4,1.3c-0.5,0.3-1.1,0.1-1.3-0.4L63,74.2
		c-0.3-0.5-0.1-1.1,0.4-1.3L63.7,72.8z"/>
	<path d="M27.8,12.7c0.8,0.2,0.5,0,1,0.5l7.9,13.6c0.3,0.5,0.1,1.1-0.4,1.3c-0.5,0.3-1.1,0.1-1.3-0.4l-7.9-13.6
		c-0.3-0.5-0.1-1.1,0.4-1.3L27.8,12.7z"/>
	<path d="M35.9,72.8l0.4,0.1c0.5,0.3,0.6,0.9,0.4,1.3l-7.9,13.6c-0.3,0.5-0.9,0.6-1.3,0.4c-0.5-0.3-0.6-0.9-0.4-1.3L35,73.2
		C35.4,72.8,35.1,73,35.9,72.8z"/>
	<path d="M71.8,12.7l0.4,0.1c0.5,0.3,0.6,0.9,0.4,1.3l-7.9,13.6c-0.3,0.5-0.9,0.6-1.3,0.4c-0.5-0.3-0.6-0.9-0.4-1.3l7.9-13.6
		C71.2,12.7,71,13,71.8,12.7z"/>
	<g>
		<path d="M92.5,54.3l4.3-3.8l-4.3-3.8V54.3z"/>
		<path d="M92.4,45.7c0.6,0.1,0.4,0,0.8,0.2l4.3,3.8c0.4,0.4,0.4,1.1,0,1.5c-0.5,0.5-0.5,0.5-2.2,1.9c-1.6,1.4-1.6,1.4-2.2,1.9
			c-0.6,0.6-1.6,0.1-1.6-0.7v-7.6C91.6,46.1,91.9,46,92.4,45.7z M93.5,48.9v3.2c0.6-0.5,1.2-1.1,1.9-1.6L93.5,48.9z"/>
	</g>
	<g>
		<path d="M7.5,54.3l-4.3-3.8l4.3-3.8V54.3z"/>
		<path d="M7.6,45.7c0.5,0.1,0.8,0.5,0.8,1v7.6c0,0.8-1,1.3-1.6,0.7c-0.5-0.5-0.5-0.5-2.2-1.9C3,51.7,3,51.7,2.5,51.2
			c-0.4-0.4-0.4-1.1,0-1.5L6.8,46C7.2,45.7,7,45.8,7.6,45.7z M6.5,48.9l-1.9,1.6c0.6,0.5,1.2,1.1,1.9,1.6V48.9z"/>
	</g>
	<g>
		<path d="M24.9,15.6L26,10l5.4,1.9L24.9,15.6z"/>
		<path d="M25.9,9l0.4,0l5.4,1.9c0.8,0.3,0.9,1.4,0.2,1.8l-6.5,3.8c-0.7,0.4-1.6-0.2-1.5-1c0.1-0.7,0.3-1.4,0.4-2.1
			c0.2-1.2,0.5-2.3,0.7-3.5C25.3,9.2,25.1,9.5,25.9,9z M26.8,11.3c-0.2,0.8-0.3,1.6-0.5,2.4l2.8-1.6L26.8,11.3z"/>
	</g>
	<g>
		<path d="M24.9,85.6l1.1,5.6l5.4-1.9L24.9,85.6z"/>
		<path d="M25.1,84.6l0.3,0.1l6.5,3.8c0.7,0.4,0.6,1.5-0.2,1.8l-5.4,1.9c-0.6,0.2-1.2-0.2-1.3-0.7c-0.1-0.7-0.3-1.4-0.4-2.1
			c-0.2-1.2-0.5-2.3-0.7-3.5C23.9,84.8,24.3,84.7,25.1,84.6z M26.3,87.5c0.2,0.8,0.3,1.6,0.5,2.4l2.3-0.8L26.3,87.5z"/>
	</g>
	<g>
		<path d="M75.1,15.6L73.9,10l-5.4,1.9L75.1,15.6z"/>
		<path d="M74,9c0.8,0.5,0.6,0.2,0.9,0.8c0.1,0.7,0.3,1.4,0.4,2.1c0.2,1.2,0.5,2.3,0.7,3.5c0.2,0.8-0.7,1.5-1.5,1L68,12.7
			c-0.7-0.4-0.6-1.5,0.2-1.8l5.4-1.9L74,9z M73.2,11.3l-2.3,0.8l2.8,1.6C73.5,12.9,73.4,12.1,73.2,11.3z"/>
	</g>
	<g>
		<path d="M75.1,85.6l-1.1,5.6l-5.4-1.9L75.1,85.6z"/>
		<path d="M74.8,84.6c0.8,0,1.2,0.4,1.2,1.1c-0.1,0.7-0.3,1.4-0.4,2.1c-0.2,1.2-0.5,2.3-0.7,3.5c-0.1,0.6-0.7,0.9-1.3,0.7l-5.4-1.9
			c-0.8-0.3-0.9-1.4-0.2-1.8l6.5-3.8L74.8,84.6z M73.7,87.5l-2.8,1.6l2.3,0.8C73.4,89.1,73.5,88.3,73.7,87.5z"/>
	</g>
</g>
</svg>
