<?xml version="1.0" encoding="utf-8"?>
<!-- Generator: Adobe Illustrator 23.0.2, SVG Export Plug-In . SVG Version: 6.00 Build 0)  -->
<svg version="1.1" id="Layer_1" xmlns="http://www.w3.org/2000/svg" xmlns:xlink="http://www.w3.org/1999/xlink" x="0px" y="0px"
	 viewBox="0 0 6553.6 6553.6" style="enable-background:new 0 0 6553.6 6553.6;" xml:space="preserve">
<style type="text/css">
	.st0{font-family:'HelveticaNeue-Bold';}
	.st1{font-size:0.6554px;}
</style>
<g>
	<path d="M5219.5,4407.7c-91.6,3.8-153.7-18.1-196.5-51H3261.3c-48.6,22.7-116.8,41.5-211.2,52.8c-145,17.2-357,17.8-665.1-12.5
		c-180-17.7-308-29.4-412.5-33.8c-103.4-4.5-184-1.7-269.7,9.3c-12.8,1.7-193.6,23.9-324.3,39.3c-72.9,8.5-134.1,15.5-151.8,16.8
		c-56.1,4.1-99.1-12.8-124.5-39.3c-9.4-9.7-16.5-20.8-21.1-32.8c-40.2,0-113.1,0-187.2-0.1c-109.8-0.1-222.4-0.1-235.8,0
		c-25.6,0.3-45,1.6-62.3,5.8c-16.1,3.9-31.7,11-50.7,23.2l-161,103.3h5899.6v-0.1c10.7,0,12.6,0.1,23.9,0.1l-161.1-103.3
		c-46.1-29.6-75.9-29.4-153.4-29c-15.7,0.1-33.4,0.1-53.2,0.1v0.1h-112.2c-0.8,6.4-2.4,12.7-4.6,19c-9.7,27-32.2,50.6-69.5,64.2
		c-41.2,15.1-105.3,14.7-152.7,14.4c-8,0-15.5-0.1-22.2-0.1h-3.3c-151,0.8-273.9,1.4-356.4-46.5H5219.5z M5216.4,2254
		c6.2,2.4,12.8,4.5,19.9,6.6c23.2,6.7,49.4,11,75.5,10.1c15.9-0.5,30.7-4.6,44.3-11.1c15.9-7.7,30.3-18.9,43-32
		c13.1-13.6,28.4-25.4,45.1-34.2c22.5-12.1,47.4-18.6,72.5-17c26.3,1.7,52,12.1,74.7,33.9c11.4,11,21.9,24.9,31.1,42.2
		c20.3,38.3,43.1,35.5,67.8,32.6c24.5-2.9,50.2-6,80.6,4.5h0.1c8.7,3-3.5-1.2,3.5,1.3c10,3.5,28.2,9.8,46.9,9.3
		c9.8-27.7,14.3-56.1,14-84.5c-0.8-62.5-25-125-68.7-175.9c-35.9-41.9-82.4-72.1-135.4-91.9c-59.2-22.3-126.2-31.7-195.3-30.3
		l-27,0.5l-8.8-25.4c-8.1-23.7-18.7-40.6-30.7-51.5c-13.8-12.6-30.5-17.4-48.5-16.4c-21,1.3-43.9,10.5-66.3,25.4
		c-34.7,23.1-67.1,58.9-89.8,101.1l-0.8,1.4l-1.3,2c-15.6,22.5-35.5,57.4-56.9,94.9c-39.5,68.9-83.5,146-126.4,188.7
		c16.6,5.5,32.5,12.1,47.4,19.4c134.2-10.6,147.6-74.8,160.4-135.9c13.5-64.6,26.5-126.6,112.5-156.4c19.3-6.7,40.2,3.5,46.8,22.8
		c6.7,19.3-3.5,40.2-22.8,46.8c-46.4,16-55.1,58.1-64.2,101.8c-8.5,40.9-17.3,83-43.5,117.4L5216.4,2254z M5782.9,2370
		c-13.5-2.9-24.6-6.8-32.6-9.7c-4.6-1.6,7.5,2.6-3.3-1l0,0c-14.5-5-31.7-2.9-48.1-0.9c-50.7,6-97.4,11.7-141.4-71.3
		c-5.4-10.1-11.1-18-17.2-23.7c-9-8.7-18.6-12.7-28.2-13.4c-10.9-0.7-22.3,2.5-33.2,8.3c-9.6,5.1-18.6,12.1-26.6,20.3
		c-18.5,19.1-39.8,35.7-64.1,47.3c-22.4,10.7-47.1,17.4-74.1,18.4c-34.9,1.2-68.8-4.3-98-12.7c-25.4-7.3-48.1-17-65.5-26.9
		c-10.7,4.8-22.7,9.2-35.9,12.8c7.9,7.5,15.3,15.2,22.5,23.3c51,58.1,81.4,131.5,91.2,211c1.8-0.3,3.8-0.7,5.6-1
		c-0.3-1.6-0.7-3-0.9-4.6c-3-15.7-5.4-32.1-5.9-46.9c-0.8-20.3,15.1-37.5,35.4-38.3c20.3-0.8,37.5,15.1,38.3,35.4
		c0.4,10.2,2.2,22.9,4.8,35.9c3.3,17,7.7,33.8,11.3,46c33.6,75.1,70.4,76.4,92.7,67.4c13.2-5.4,21.9-13.1,22.7-13.8l0.3-0.1l5-4.5
		l5.9-2.4c6.8-2.6,14.5-4.8,22.7-7.1c11.8-3.3,25.2-6.9,29.6-11.3l2.8-2.6l3.1-2c32.5-20.4,40.4-18.7,58.6-14.9
		c1.4,0.3,3,0.7,4.5,0.8c7.2,0.8,8.4,0.9,9.7,1h0.1c19.5,2.4,43.8,5.4,50.3-28.4l1.6-8.4c8.3-42.5,11.5-59.8,22.9-75.1
		c9.7-13.1,18.7-17.4,33.9-24.8c7.6-3.7,18-8.7,33.9-18.7c8.4-5.4,16.3-11.4,24.6-19.1c8.9-8.1,18.6-18.5,30.3-31.6
		c3.8-4.3,7.3-8.7,10.7-13L5782.9,2370z M5157.4,2631.7c0.9-18.1,0.7-36-0.7-53.7c-5.6-71.7-30.5-137.8-75.1-188.4
		c-44.3-50.3-108.5-85.9-192.7-97c-20.3-2.6-42.1-3.9-65-3.7c-5.6,0.3-11.5,0.5-17.3,0.8c-5.2,0.3-10.6,0.4-16,0.7l-1.8,0.1l0,0
		c-36,1.7-75.6,4.7-117.7,15.1c-73.9,30.5-121.2,79.3-145.8,136.1c-21.8,50.3-26,107.6-15.2,164.5c11,58.1,37.6,115.9,77.1,166.1
		c51.9,65.8,126,118.1,216.4,140.5c-8.1-59.9-14.9-114.6-19.8-161.7c-2.1-20.3,12.7-38.4,32.9-40.5c20.3-2.1,38.4,12.7,40.5,32.9
		c9.7,93.2,26.2,214.4,47.1,345.8c20.1,127.1,44.6,266.1,71,400.6c41.2,209.5,97.3,382.3,147.5,537.8c25.3,78.2,49.3,152,69.2,224.3
		c36.2,130.5,180.5,129.8,383.6,128.7h3.3c6.9,0,14.5,0,22.8,0.1c41.7,0.3,97.8,0.7,126.9-10.1c14.8-5.4,22.9-12.6,25.6-19.8
		c1.2-3.4,1.2-7.3,0-11.5c-1.6-5.6-4.7-11.1-9.4-16c-13.2-13.9-36.7-23.6-68.2-22.3c-2.2,0.1-4.3,0-6.6-0.3
		c-17.3-0.3-29.5-0.3-40.1-0.1c-24.9,0.1-41.9,0.3-81.4-3.1l0,0c-24.1-1.8-51.1-4.7-79.6-8.4c-26.3-3.4-52.4-7.3-76.9-11.8
		c-75.4-13.8-76.8-20.7-90.4-87.2c-2.5-12.1-5.6-27.1-10.9-47.2c-12.6-48-25.6-124.8-34.9-201.7c-8.7-72.4-14.3-146-13.1-196.9
		c-0.5-52-6-93.8-15.7-133.3c-9.7-39.7-24-77.9-41.4-121.6c-10.9-27.3-20.6-81.1-28.8-146.4v-0.1c-9.8-78.5-18-173.5-23.3-258.2
		c-4.8-76.4-5.9-131.3-3.3-186.1c2.6-54.1,8.8-107.6,18.2-181.7c2.4-18.1,4.6-37.5,6.7-59c0.8-8.4,1.6-17.2,2.4-26.3V2631.7z
		 M4783.3,2217L4783.3,2217c13.9-1,27.7-1.7,40.9-1.8c35.9-1.8,66.6-5,88.5-17.2c34.3-19.3,84.9-107.9,129.2-185.5
		c21.1-37,40.9-71.6,59-98c28.4-52.2,69.2-96.9,113.4-126.1c32.9-21.8,68.2-35.4,102.5-37.6c37.4-2.4,72.9,8.3,102.8,35.4
		c15.9,14.4,29.8,33.3,40.9,57.3c69.2,1,136.4,12.2,197,35c64.1,24.1,121,61.2,165.4,113c54.8,64,85.2,143,86.2,223
		c0.9,76.3-24.8,152.8-81.5,217.3c-13,14.7-24.4,26.6-35.7,37.1c-11.9,10.9-23.1,19.7-35,27.1c-18,11.4-31.6,18-41.7,22.8
		c-4.7,2.2-5.4,0.8-6.4,2.2c-1.2,1.7-3.7,14.2-9.6,45.1l-1.6,8.4c-19.8,101.7-82.1,94.1-131.9,87.9l0,0c-4.8-0.5-7.2-0.9-8.4-1
		c-4.6-0.5-7.7-1-10.5-1.7l0.3,0.3c-18,17.3-40.9,23.6-61.1,29.2c-3.7,1-7.3,2-10.5,3c-7.3,5.6-21,15.1-38.3,22
		c-48.1,19.4-124,24.2-181.3-92.4l-1.7,0.3c-7.5,1.4-14.8,2.8-22.3,3.9c-0.3,3.3-0.5,6.4-0.8,9.7c-0.7,13-2,26.1-3.7,39.3
		c-1.8,18-3.8,34.9-5.9,51.2c-9.2,71.8-15.2,123.6-17.7,175.9c-2.5,51.5-1.4,104.1,3.3,178.1c5.4,84.9,13.2,178.7,22.7,253.6l0,0
		c7.5,59.5,15.7,107,24.2,128.2c18.5,46.4,33.7,87.2,44.7,131.7c10.9,44.7,17.3,92,17.8,150.7v1c-1,46.4,4.3,116.7,12.8,187
		c8.9,74.2,21.2,147.2,32.9,191.6c5.5,20.7,8.9,37.7,11.7,51.2c4.6,22.2,5,24.5,31.5,29.4c23.7,4.3,48.5,8.1,72.9,11.3
		c24.8,3.1,50.7,5.8,76.2,7.7h0.3c39.2,3.3,53.7,3.3,75.1,3.1c12.8-0.1,28-0.1,50.2,0.3c51.5-0.7,92.5,18.5,118.1,45.2
		c3.1,3.3,6.2,6.8,8.9,10.4h133.6l0.1,0.1c19.7,0.1,37.1,0,52.8-0.1c93.5-0.5,129.2-0.8,193.6,40.5l169.3,108.7l0,0
		c75.2,45.2,106.3,70.8,85.2,105.9c-15.1,25.2-52.4,25-119.8,24.6c-2,0,3.9,0-37.6,0v-0.1H322.1v0.1c-19,0-24.1,0.1-28.3,0.1
		c-11,0.1-20.3,0.4-28.3-0.3c-28.7-2.5-47.1-32.4-35.1-55.4c5.9-11.3,19.8-20.1,39.7-32.5c6.3-3.9,13.8-8.7,20.6-13l215.2-138.1
		c26.1-16.8,48.5-26.7,73.3-32.8c23.6-5.8,47.8-7.5,79-7.7c13.4-0.1,126.2,0,236.3,0c75.8,0,150.1,0.1,189.7,0.1
		c15.1-33.6,50.6-64.9,109.3-82.3c9.6-2.9,18-5.2,27.1-7.7c59.6-16.8,148.6-41.8,184.8-79.3c38.7-40,106.8-110.5,180.2-150.9
		c85.6-47.2,175.4-55.8,238.3,49.9l0.8,1.2c10.4,19,20.4,30.5,33.9,34.6c17.6,5.4,43.8,2.9,83.6-6.8l2.2-0.5l1.3-0.1
		c45.9-6.7,95.7-14.3,143.3-21.6c196.9-30.1,354.9-54.5,575.7-51.2c23.7,0.4,61.7,4.2,101.7,8.1c41,4.1,84.1,8.4,109.6,9.6
		c-4.8-9.3-13.6-24-19.8-50.9c-24.2-106-66.8-291.6-84-510.5h-0.3l-0.1-4.5c-6-79-8.9-162.4-6.3-247.7
		c-64.6-10.6-115.3-26.1-171.2-43.1c-28.4-8.7-58.2-17.7-94.5-27.4c-148.8-39.6-257.6-68.6-364.2-109.6
		c-106.7-41.2-209.1-93.6-343.8-179.8l-2.6-1.7c-38.1-29.2-149.9-54.5-267.1-74.1c-121.5-20.3-246.7-33.8-307.4-40
		c-70.9-7.2-139.5-9.4-208.3-11.8c-50.1-1.7-100.1-3.4-148.8-6.7c-88.1-5.9-188-15.1-277.3-25.6c-83.8-9.7-158.7-20.7-207.1-31.1
		l0,0c-57.9-10.7-102.6-23.6-134.7-42.1c-39.7-22.9-60.8-53.3-63-95.8c-3.8-72.7,35.7-93.8,115.9-98c25.7-1.3,57.1-0.7,94.1,0.3
		c8.3,0.1,16.9,0.4,25.8,0.5c55.7,1.2,95-2.2,128.2-12.2c31.2-9.3,58.5-25.2,90.4-49.3c7.3-8.3,14.7-15.5,22.2-21.8
		c38.3-32.9,77.7-43.1,114-40c35.7,3.1,67.2,19.5,91.2,40.2c6.9,6,13.4,12.5,18.9,19c54.7,63.8,62.5,63.4,139.1,59.6
		c14.8-0.8,31.9-1.6,53.9-2.2c42.3-1.3,90-4.1,134.1-6.9c55.8-3.8,104.3-8.1,126.9-10.7c79.7-9.4,154-13.9,226.2-11.5
		c72.5,2.4,142.3,11.8,212.6,29.9c29.2,7.5,57.5,16.1,84.9,26c27.5,9.8,56.1,21.5,86,35.1c12.8,5.9,24.8,11.4,36,16.5
		c81.3,37.4,119.8,55.1,158.6,60.8c35.8,5.2,76.9,1.3,155.5-6.2c31.6-3,67.6-6.4,86.1-8v0.1c98.2-9.2,168.8-4.3,232.9-0.1
		c120.6,8.1,216.5,14.5,436.3-87.7l0.4-0.1h0.1l0,0l0.5-0.1c180.2-78.2,295.4-12.8,391.8,41.8c20.4,11.7,40,22.7,58.9,31.2
		c101.7,46.1,208.9,36.2,303.4,27.5c18.4-1.7,36.2-3.3,43.9-3.9c226-17.6,422.8-108.1,709.2-240c9.8-4.6-21.1,9.7,55.4-25.4l1.7-0.8
		l1.4-0.5c64.1-22.3,121.4-27.1,171.8-29.5L4783.3,2217z M4183,3107.9l24.9-1.2c13.6-0.7,27.1-1.4,40.5-2.1v0.1l99-4.8
		c73.3-3.7,134.2,26,195.6,55.7c87.3,42.3,175.8,85.2,296.9-3.3c-2.9-17.3-5.6-34.5-8.3-51.6c-5.9-37.6-11.5-74.4-16.8-109.8
		c-120.5-22-218.6-87.9-285.5-172.8c-46.8-59.4-78.4-128.3-91.6-198.2c-13.4-71-7.9-143,19.8-207.2c2.6-6.2,5.5-12.3,8.7-18.4
		c-180.9,82.1-328.9,143.3-482.3,173.9c1.2,80.5,15.5,172.6,30.9,272.5c9.6,61.7,19.7,126.5,27.1,190.1c0.7,5.4,1.2,13.1,1.8,22.8
		c1,16,2.5,37.7,5.8,60.8c45.4-2,90.2-4.1,133.8-6.3l0,0L4183,3107.9z M4853.2,3232.4c-32,20.1-62.1,32.9-90.6,40.4
		c9.2,50.1,19.1,102.2,29.5,155.2c13.9,70,27.4,134.1,39.6,182.2c22.7,89.7,54,184.7,86.6,283.2c24.9,75.6,50.6,153.4,75.1,238
		c1.8,6.6,3.3,14,5,23.3c8.5,46,27.4,147.6,144.7,173.4c-8.9-16.6-16.4-35.4-22.2-56.6c-19.7-70.6-43.3-143.8-68.4-221.4
		c-51.1-157.8-108-333.6-149.8-546.2c-17.4-88.3-34.2-180.6-49.7-271.6H4853.2z M4689.1,3280.4c-64.2-3.1-121.5-30.8-178.3-58.3
		c-53-25.7-105.5-51.1-160-48.5l-134.6,6.7c-105.4,5.5-219.5,10.6-334.9,13.9c-39.2,1.2-78.2,2.1-117,2.6
		c-9.6,1.8-20.7,2.5-33.4,1.3l0.1-0.8c-63,0.8-124.9,0.8-184.4-0.1c-3.4,171.8-22.5,379.1-54.5,574.5
		c-30.8,188-73.7,365.6-126.1,491.3c-2.8,6.6-6.3,13.2-10.6,19.9h1606.8c-22.4-42.6-30.7-86.6-35.9-114.8c-1.3-7.3-2.5-13.4-3.3-16
		c-22.5-77.6-48.9-157.5-74.6-235.4c-32.9-99.5-64.5-195.3-88.1-288.5c-12.6-49.8-26.5-115.1-40.5-186
		c-9.6-48.6-20.1-104.6-30.5-161.7H4689.1z M3975.1,3117.2c-2.9-22.5-4.2-43.3-5.2-59.1c-0.5-8-0.9-14.4-1.4-19
		c-7.9-67.1-17.4-128.5-26.5-187c-15.2-98.2-29.4-189.1-31.6-271.6c-20.1,2.6-40.4,4.8-60.9,6.4c-20.4,1.6-31.6,2.6-42.7,3.7
		c-15.7,1.4-31.7,2.9-48.1,4.2c13,34.3,23.6,80.3,32.1,131.1c21.5,127,33.8,289.7,35.1,346.9l0.1,4.6c0.3,10.2,0.7,22.7-0.4,34.5
		c-0.3,3.3-0.7,6.7-1.2,10c18.4-0.4,36.6-0.9,54.9-1.4c32-0.9,64-2,95.9-3.1H3975.1z M983.1,2610.2c-6.8-30.4-9.2-61.7-7.6-91
		c1.2-22,4.7-43.1,10.1-62.1c-11.9,0.4-22.4,0.7-31.9,0.4c-8.3,2.8-15.7,7.1-22.5,12.7c-17.2,14.2-29.8,36-37,59.5
		c-7.3,23.7-8.9,48.4-4.2,68.2c0.7,3,1.6,5.9,2.5,8.5c31.1,1.7,60.9,2.9,90.6,3.9V2610.2z M1065.6,2453.6
		c-8.9,15.7-14.8,40.8-16.4,69.5c-1.6,29.1,1.7,60.8,10.9,89.8c53.1,2,106.4,4.7,161.3,10.2c62,6.3,189.7,20.1,312.2,40.5
		c126.4,21.1,249.2,50.2,299.1,87.7c129.4,82.7,227.3,132.9,328.6,172c101.7,39.2,209.3,67.9,356.8,107c34.3,9.2,66.6,19,97.1,28.3
		c50.3,15.3,96.3,29.4,152,39.2c5.6-185.5,32.2-398.2,124.1-542.5c-118.6,34.3-196.9,29.1-288,22.9c-61.7-4.2-129.9-8.7-221.5-0.3
		l-0.1,0.1c-47.2,4.1-67.6,6-85.6,7.7c-84.7,8-129,12.3-172.8,5.9c-49-7.2-90.8-26.3-178.8-66.8c-11.1-5.1-23.2-10.6-36-16.5
		c-26.2-12.1-53-22.8-80.2-32.6c-27.3-9.8-53.3-17.8-78.2-24.2c-64.7-16.6-129.4-25.3-196.6-27.5c-67.5-2.2-138.4,2.1-215.4,11.1
		c-22.9,2.8-72.7,7.2-130.7,11.1c-42.7,2.9-90.7,5.5-136.6,6.9l-5.5,0.1L1065.6,2453.6z M2150.6,4216.1
		c-12.7,0.9-23.7-8.7-24.6-21.4c-0.9-12.7,8.7-23.7,21.4-24.6c44.4-3.1,84.3-5.6,128.1-6.9c42.9-1.3,88.1-1.2,143.4,0.7
		c12.7,0.4,22.7,11,22.3,23.7c-0.4,12.7-11,22.7-23.7,22.3c-54.4-1.8-98.8-2-140.6-0.7C2235.8,4210.3,2196,4212.8,2150.6,4216.1z
		 M1962.2,4289c-9.6-25.4-16.5-52.8-20.4-79.8c-4.5-31.3-5-62.9-0.9-91.6c-25,5.2-46.4,7.7-65.3,7.3c-11.9,16.8-19.3,40.9-22.5,66.8
		c-4.2,32.9-1.7,67.8,6.3,96.1c32.5-0.5,66.3,0,102.9,1.3V4289z M2018.7,4104.7c-8,25.3-8.9,59.1-3.8,94c4.8,33.8,15.2,67.4,30,94.5
		c92.9,5.9,203.8,16.3,347.5,30.4c301.6,29.6,508.4,29.2,649.2,12.5c177.5-21.1,239.9-64,255.7-101.7
		c50.3-120.5,91.6-292.2,121.5-474.7c33.8-206.4,53-425.6,54.3-600.2v-0.1l-0.1-158.7c0-20.3,16.5-36.8,36.8-36.8
		s36.8,16.5,36.8,36.8l0.1,122.7c63.2,1,129.4,0.9,196.7-0.1c5.6-2.8,7.6-10.4,8.3-17.8c0.9-9.8,0.7-18.7,0.4-26.1l-0.1-5.2
		c-1.2-54.9-13.1-212.2-34.2-336.2c-12.1-71.3-25.6-128.7-38.1-139.3c0,0-0.1-0.1-0.3-0.1c-3.8,0-7.7,0-11.7,0
		c-4.1,0.4-8.7,0.7-13.4,0.4c-4.8-0.4-9.2-0.7-13.4-1.2c-56.9-2.9-115.7-13.8-174.9-40.5c-21.1-9.6-42.5-21.8-64.9-34.5
		c-81.7-46.4-179.3-101.7-325.3-38.8v0.1l-2.9,1.3c-184,85.7-226.1,378.3-232.4,623l0.9,0.1l-1.6,33.8v0.7
		c-1,80.2,1.3,153.6,3.1,210.9c0.8,22.7,1.4,42.9,1.7,60.8c16.6,215.4,58.7,399.2,82.7,503.8c14.8,64.9,23.9,104.3,11.1,122.7
		l-6.9,10.1l-11.7,3.9c-24.2,8.1-95.4,1-161.3-5.6c-38.8-3.9-75.6-7.6-95.3-7.9c-213.4-3.1-369.5,20.8-563.7,50.6
		c-25.7,3.9-52,8-80.9,12.3L2018.7,4104.7z M815.4,2601c-4.2-29.1-1.3-62,8.3-93.1c9.4-30.5,25.4-59.8,47.4-82.6
		c-14.4-13-30.5-30.8-51.5-55.2c-3.3-3.9-7.1-7.6-11.1-11.1c-13.4-11.5-30.7-20.7-49.4-22.4c-18.1-1.6-38.5,4.2-59.8,22.3
		c-5.6,4.8-11.4,10.5-17,17.2l-2.6,3l-2.9,2.2c-40.4,30.8-75.1,51-116.9,63.6c-40.8,12.2-86.9,16.4-150.7,15.1
		c-8.9-0.1-17.6-0.4-25.8-0.5c-35.1-0.8-64.9-1.4-89-0.3c-31.2,1.6-46.7,6.2-45.9,20.6c0.8,14.8,9.4,26.1,26.1,35.7
		c24.1,13.9,61.7,24.2,112.3,33.6l1,0.1c45.9,9.8,118.5,20.4,200.1,29.9c73.1,8.5,153.1,16.3,227.4,21.9V2601z M1784.1,4290.5
		c-7.1-33.8-8.8-72.1-4.3-108.3c3.7-28.6,11.3-56.1,23.3-79.8c-17.6-12.6-31.3-30.3-43.9-53.5l0,0c-34.6-56.8-87.3-49.8-138.5-21.6
		c-63.8,35.1-126.9,100.4-162.7,137.4c-50.3,52-150.9,80.3-218.1,99.2c-10.4,2.9-19.9,5.6-26.2,7.5c-35.8,10.6-55.8,26.2-62.8,41.8
		c-2.1,4.8-2.8,9.3-2.1,13.2c0.7,3.9,2.9,8,6.6,11.7c11.4,11.8,33.7,19.1,66.2,16.8c16.4-1.2,76.5-8,148.6-16.5
		c140.1-16.5,312.7-37.6,323.4-38.9c30.5-3.9,60.3-6.8,90.4-8.8L1784.1,4290.5z"/>
</g>
<text transform="matrix(1 0 0 1 0 5736.3662)" class="st0 st1">Created by Oleksandr Panasovskyi</text>
<text transform="matrix(1 0 0 1 0 5737.0215)" class="st0 st1">from the Noun Project</text>
</svg>
