<?xml version="1.0" encoding="utf-8"?>
<!-- Generator: Adobe Illustrator 23.0.2, SVG Export Plug-In . SVG Version: 6.00 Build 0)  -->
<svg version="1.1" id="Layer_1" xmlns="http://www.w3.org/2000/svg" xmlns:xlink="http://www.w3.org/1999/xlink" x="0px" y="0px"
	 viewBox="0 0 100 100" style="enable-background:new 0 0 100 100;" xml:space="preserve">
<style type="text/css">
	.st0{fill:#1C1C1B;}
</style>
<title>Dancers2</title>
<path class="st0" d="M80.4,62.5c-0.3-0.2-0.6-0.3-0.9-0.3l-6.9-0.5l6.9,0.8c0.3,0,0.5,0.1,0.8,0.2c0.2,0.1,0.3,0.4,0.2,0.6
	c-0.1,0.2-0.3,0.4-0.6,0.4c-0.3,0.1-0.5,0.2-0.8,0.2c-1.1,0.2-2.3,0.3-3.4,0.4c-4.6,0.3-9.2-0.4-13.6-1.9c-2.2-0.7-4.2-1.7-6.2-3
	c-1.9-1.3-3.5-2.9-4.9-4.7C49.5,52.9,48.2,51,47,49c-1.2-1.9-2.4-3.9-3.3-6c-0.2-0.5-0.5-1-0.7-1.6c-0.1-1.9-0.3-3.8-0.3-5.7
	c0-2.1,0.3-4.2,0.9-6.2c0.3-1,0.7-2,1.3-2.9l0.4-0.7h0.2c2.3-0.1,4.6,0,6.9,0.1s4.6,0.3,6.9,0.6c2.3,0.3,4.6,0.6,6.9,0.8
	c2.3,0.2,4.7,0.1,7-0.2c1.2-0.2,2.3-0.5,3.4-0.9c0.6-0.2,1.1-0.5,1.4-1c0.3-0.5,0.3-1.2-0.1-1.6c0.3,0.4,0.4,1,0.1,1.5
	c-0.4,0.5-0.9,0.8-1.4,0.9c-1.1,0.4-2.2,0.6-3.4,0.8c-2.3,0.3-4.6,0.3-6.9,0c-2.3-0.2-4.6-0.6-6.9-0.9s-4.6-0.6-7-0.7S48,25,45.7,25
	c0.2-0.4,0.5-0.7,0.8-1c0.8-0.7,1.6-1.3,2.5-1.8c1-0.5,1.9-1.1,2.9-1.6c3.7-2.2,7.6-4.1,11.6-5.7c2-0.8,4-1.7,5.8-2.9
	c0.9-0.6,1.7-1.4,2.3-2.3c0.3-0.5,0.5-1,0.4-1.6c0-0.6-0.4-1-1-1.2c0.5,0.2,0.9,0.6,0.9,1.2c0,0.5-0.2,1.1-0.5,1.5
	c-0.7,0.8-1.5,1.6-2.4,2.1c-1.8,1.1-3.8,2-5.8,2.7c-4,1.6-8,3.4-11.8,5.5c-1,0.5-1.9,1-2.8,1.6c-1,0.5-1.9,1.2-2.7,1.9
	c-0.5,0.5-0.9,1.1-1.3,1.6c-0.4,0-0.7,0.1-1.1,0.1c-0.7,0.1-1.3,0.4-1.8,0.9c-0.5,0.5-0.8,1.1-1,1.7c-0.2,0.6-0.3,1.2-0.3,1.8
	c-0.4,2.3-0.4,4.7,0,7.1c0.3,1.7,0.8,3.4,1.4,5c0,0.2,0,0.4,0,0.5c0,4.2-1.8,8.3-2.7,12.5l-3.1,12.6c-1.1,4.2-2.1,8.4-2.9,12.6
	c-0.8,4.3-1.1,8.7-0.7,13l0,0c0,0.1,0.1,0.2,0.2,0.2c0,0,0.1,0,0.1,0c2.9-2.2,4.3-6,3.6-9.6c0.5,3.4-0.8,6.9-3.6,9
	c-0.2-4.2,0.2-8.4,1-12.4c0.8-4.2,2-8.4,3.1-12.6l3.3-12.5c0.5-2,1.2-4,1.8-6.2c0.5-1.6,0.8-3.3,1-4.9c1,2,2.1,3.9,3.2,5.7
	c1.2,2,2.6,3.9,4,5.8c1.5,1.9,3.2,3.5,5.1,4.9c2,1.3,4.1,2.3,6.4,3c4.5,1.5,9.2,2,13.9,1.7c1.2-0.1,2.3-0.3,3.5-0.5
	c0.6,0,1.2-0.3,1.6-0.9C80.8,63.1,80.7,62.7,80.4,62.5z M41.5,36.5c-0.4-2.2-0.4-4.5-0.1-6.8c0-1.1,0.4-2.1,1-3
	c0.5-0.4,1.1-0.6,1.7-0.7l-0.1,0.1c-0.5,1-1,2-1.3,3c-0.8,2.8-1.1,5.7-0.9,8.6C41.7,37.4,41.6,36.9,41.5,36.5L41.5,36.5z"/>
<path class="st0" d="M38.1,20.7c0.7,0.8,1.7,1.2,2.8,1c0.9-0.2,1.8-0.7,2.4-1.5c0.6-0.7,1.1-1.4,1.5-2.2c-0.5,0.7-1.2,1.3-1.8,1.8
	c-0.6,0.5-1.4,0.9-2.2,1c-1.6,0.2-2.7-1.4-3-3c-0.2-1.7-0.3-3.4-0.1-5.1c0.1-1.8,0.1-3.5,0-5.3c-0.3,1.7-0.6,3.5-0.8,5.2
	c-0.3,1.8-0.3,3.6-0.1,5.4C37.1,19.1,37.5,20,38.1,20.7z"/>
</svg>
