<?xml version="1.0" encoding="utf-8"?>
<!-- Generator: Adobe Illustrator 23.0.2, SVG Export Plug-In . SVG Version: 6.00 Build 0)  -->
<svg version="1.1" id="Layer_1" xmlns="http://www.w3.org/2000/svg" xmlns:xlink="http://www.w3.org/1999/xlink" x="0px" y="0px"
	 viewBox="0 0 100 100" style="enable-background:new 0 0 100 100;" xml:space="preserve">
<polygon points="90.5,44.9 89.7,43.4 87.9,44.4 88.8,45.9 88.5,46.1 87.7,44.6 85.9,45.6 86.8,47.1 86.3,47.4 86.3,47.4 86.2,47.5 
	85.1,45.9 83.4,46.9 84.5,48.6 83.9,48.9 83.9,48.9 83.5,49.2 82.4,47.5 80.7,48.6 81.8,50.3 81.3,50.6 81.6,51 84.3,49.3 
	84.3,49.3 86.9,47.6 86.9,47.6 89.3,46.2 89.3,46.2 90.7,45.4 92.5,44.6 92.5,44.6 95.5,43.2 95.3,42.8 94.7,43 94.1,41.6 
	92.2,42.4 92.9,43.8 92.5,44 91.8,42.4 89.9,43.3 90.7,44.8 "/>
<polygon points="80.7,50.9 79.6,48.9 77.8,49.9 78.9,51.9 78.4,52.2 78.6,52.6 81.5,51 81.2,50.6 "/>
<polygon points="77.7,52.5 76.6,50.1 74.8,50.9 75.9,53.3 75.3,53.6 75.5,54 78.5,52.7 78.3,52.3 "/>
<polygon points="74.9,53.5 74.3,53.8 73.3,51.3 71.4,52 72.5,54.5 71.9,54.8 72.1,55.2 75.1,54 "/>
<polygon points="70.9,55 70,52.3 68.1,52.9 69,55.6 68.4,55.8 68.5,56.3 71.6,55.3 71.5,54.8 "/>
<polygon points="67.1,56 66.5,52.7 64.5,53.1 65.2,56.4 64.5,56.5 64.6,57 67.8,56.4 67.7,55.9 "/>
<polygon points="63.2,56.6 63.1,52.7 61.1,52.8 61.2,56.6 60.6,56.6 60.6,57.1 63.8,57 63.8,56.5 "/>
<polygon points="55.1,56 55.7,51.7 53.7,51.5 53.1,55.8 52.5,55.7 52.4,56.2 55.7,56.6 55.7,56.1 "/>
<polygon points="59.1,56.5 59.4,52.5 57.4,52.4 57.1,56.4 56.5,56.3 56.5,56.8 59.7,57 59.8,56.5 "/>
<polygon points="48.3,55.1 51.5,55.8 51.6,55.4 51,55.2 51.9,51 50,50.5 49,54.8 48.4,54.6 "/>
<polygon points="47,54.6 47.2,54.1 46.6,53.9 47.8,49.7 45.9,49.2 44.6,53.3 44.1,53.1 43.9,53.6 "/>
<polygon points="42.7,53.4 42.9,52.9 42.3,52.7 43.7,48.2 41.8,47.6 40.4,52.1 39.8,51.9 39.6,52.4 "/>
<polygon points="38.5,52 38.7,51.6 38.1,51.4 39.7,46.6 37.8,45.9 36.2,50.7 35.6,50.5 35.4,51 "/>
<polygon points="34.6,50.7 34.8,50.2 34.2,50 35.6,45 33.7,44.5 32.2,49.5 31.6,49.3 31.5,49.8 "/>
<polygon points="27.6,49.2 30.9,49.6 30.9,49.1 30.3,49 30.9,43.9 29,43.7 28.3,48.7 27.7,48.7 "/>
<polygon points="23.7,48.5 23.7,49 26.9,49.1 26.9,48.6 26.3,48.6 26.4,43.4 24.4,43.4 24.3,48.5 "/>
<polygon points="19.9,49.3 20.1,49.8 23.2,48.9 23.1,48.5 22.5,48.6 21.4,44.4 19.4,44.9 20.6,49.1 "/>
<polygon points="16.5,51.2 16.8,51.7 19.6,50.1 19.4,49.7 18.8,50 17.1,46.7 15.3,47.7 17.1,50.9 "/>
<path d="M15.3,53.7c1-1.6,1.1-1.6,1.1-1.6s-3.1-2.1-3.9-2.9l-1.6,1.4c0,1.9,0.1,3.8-1.2,3.5s-3.4-2.2-3.6-1.7
	C6,53.1,8.5,55.9,10.3,56S14.1,55.7,15.3,53.7z"/>
</svg>
