<?xml version="1.0" encoding="utf-8"?>
<!-- Generator: Adobe Illustrator 23.0.2, SVG Export Plug-In . SVG Version: 6.00 Build 0)  -->
<svg version="1.1" id="Layer_1" xmlns="http://www.w3.org/2000/svg" xmlns:xlink="http://www.w3.org/1999/xlink" x="0px" y="0px"
	 viewBox="0 0 600 600" style="enable-background:new 0 0 600 600;" xml:space="preserve">
<g>
	<path d="M338.37,420.92c-33.66,0.6-66.68-3.09-99.55-11.02c-36.96-8.91-72.63-20.98-107-36.97
		c-30.65-14.26-59.71-31.19-84.76-54.18c-9.16-8.41-17.53-17.7-26.04-26.79c-3.66-3.91-6.75-8.34-10.11-12.53
		c-2.31-2.88-1.54-5.54,0.33-8.32c4.21-6.28,9.3-10.91,17.08-12.82c31.59-7.77,60.17-2.8,82.83,21.52
		c28.67,30.76,64.17,41.51,104.77,38.68c24.58-1.71,46.27-11.23,65.8-26.17c20.52-15.69,43.75-25.95,68.56-32.74
		c20.1-5.5,40.5-9,61.4-9.68c21.51-0.7,42.49,2.51,63.16,7.82c27.1,6.96,52,18.91,74.78,35.16c12.33,8.79,22.43,19.79,30.19,32.78
		c2.15,3.6,3.13,7.92,4.5,11.96c0.19,0.57-0.3,1.62-0.79,2.13c-2.28,2.37-4.37,5.07-7.06,6.87c-42.06,28.2-87.77,48.35-136.78,60.82
		c-21.03,5.35-42.18,10.65-63.95,12.16C363.32,420.44,350.83,420.5,338.37,420.92z"/>
</g>
</svg>
